<?xml version="1.0" encoding="UTF-8"?>
<svg id="Camada_2" data-name="Camada 2" xmlns="http://www.w3.org/2000/svg" width="197.098" height="168.884" viewBox="0 0 197.098 168.884">
  <defs>
    <style>
      .cls-1 {
        fill: #fff;
      }

      .cls-2 {
        fill: #dadada;
      }

      .cls-3 {
        fill: #3c3c3b;
      }
    </style>
  </defs>
  <g id="Camada_1-2" data-name="Camada 1">
    <path class="cls-3" d="m187.641,109.552c8.765,23.504,1.231,48.736,1.07,48.719-1.767-1.094-9.584-16.857-23.451-22.501,8.601-10.377,14.593-22.967,17.005-36.978,2.228,3.551,4.046,7.14,5.376,10.76Z"/>
    <path class="cls-2" d="m162.284,78.063c6.187,4.443,15.406,13.21,19.981,20.729-2.412,14.011-8.404,26.601-17.005,36.978-13.84-6.445-22.88-5.186-27.035-4.965,9.029-14.546,15.359-35.083,24.059-52.741Z"/>
    <path class="cls-1" d="m141.731.053c-20.346-.779-29.174,25.703-36.048,39.83-17.539-11.443-41.162-14.923-61.849-9.92-10.021,10.799-17.179,24.484-20.052,39.824,21.896,4.518,44.353,17.763,50.764,34.22-8.55,17.481-18.787,38.581-27.418,56.324,20.129,10.967,46.751,12.292,65.681-1.353,47.069-27.437,47.325-110.408,84.29-140.076C183.223,13.588,159.985-.988,141.731.053Z"/>
    <path class="cls-3" d="m43.834,29.963c-10.021,10.799-17.179,24.484-20.052,39.825-8.247-1.739-16.546-2.186-23.782-1.147,6.465-21.129,23.813-33.848,43.834-38.677Z"/>
  </g>
</svg>