<?xml version="1.0" encoding="UTF-8"?>
<svg id="Camada_2" data-name="Camada 2" xmlns="http://www.w3.org/2000/svg" width="200" height="200" xmlns:xlink="http://www.w3.org/1999/xlink" viewBox="0 0 200 200">
  <defs>
    <style>
      .cls-1 {
        fill: #6a6a6a;
      }

      .cls-2 {
        fill: #fff;
      }

      .cls-3 {
        fill: #dadada;
      }

      .cls-4, .cls-5 {
        fill: none;
      }

      .cls-5 {
        clip-path: url(#clippath);
      }

      .cls-6 {
        fill: #3d3d3b;
      }
    </style>
    <clipPath id="clippath">
      <rect class="cls-4" x="0" width="200" height="200"/>
    </clipPath>
  </defs>
  <g id="Camada_1-2" data-name="Camada 1">
    <rect class="cls-1" width="200" height="200"/>
    <g class="cls-5">
      <g id="Camada_1-2" data-name="Camada 1-2">
        <path class="cls-6" d="m184.135,124.494c14.569,20.182,13.998,46.305,13.839,46.331-1.978-.582-13.604-13.607-28.356-15.359,5.499-12.191,7.921-25.813,6.543-39.852,3.066,2.811,5.749,5.767,7.974,8.881h0Z"/>
        <path class="cls-3" d="m151.592,101.037c7.088,2.623,18.215,8.586,24.57,14.577,1.378,14.04-1.043,27.661-6.543,39.852-14.937-2.526-23.255,1.057-27.172,2.361,4.812-16.292,5.466-37.606,9.145-56.789h0Z"/>
        <path class="cls-2" d="m111.407,31.807c-19.671,4.607-21.151,32.266-24.012,47.59-19.791-6.335-43.308-3.45-61.784,6.778-6.747,12.968-9.996,27.944-8.709,43.377,22.138-1.437,47.108,5.328,57.571,19.387-3.582,18.974-7.826,41.855-11.416,61.101,22.144,5.198,47.963-.537,62.485-18.572,37.816-38.632,16.236-118.083,43.798-156.192-14.674-1.434-40.741-9.267-57.932-3.469Z"/>
        <path class="cls-6" d="m25.61,86.175c-6.747,12.968-9.996,27.944-8.709,43.378-8.348.506-16.406,2.261-23.055,5.158.627-21.916,13.88-38.648,31.765-48.535h0Z"/>
      </g>
    </g>
  </g>
</svg>